<svg xmlns="http://www.w3.org/2000/svg" viewBox="0 0 89 89"><defs><style>.cls-1{fill:#2a3843;}.cls-2{fill:#ff5;}.cls-3{fill:#f2f5f7;}</style></defs><g id="Layer_2" data-name="Layer 2"><g id="Layer_1-2" data-name="Layer 1"><rect class="cls-1" width="89" height="89" rx="26.98"/><rect class="cls-2" x="66.83" y="39.2" width="4.41" height="4.41" rx="2.2" transform="translate(-7.77 65.53) rotate(-48.39)"/><path class="cls-3" d="M21,49.65l-.53-1.85H18l-.56,1.85H15.09L18,40.26H21L24,49.65Zm-2.56-3.9H20L19.24,43Z"/><path class="cls-3" d="M23.88,46.94l2.67-.49a1.6,1.6,0,0,0,1.74,1.14c.72,0,1.08-.19,1.08-.58a.53.53,0,0,0-.25-.47,2.69,2.69,0,0,0-.9-.3A6.12,6.12,0,0,1,25.05,45a2.54,2.54,0,0,1-.7-1.79,2.82,2.82,0,0,1,1-2.21,4.26,4.26,0,0,1,2.9-.88,3.67,3.67,0,0,1,3.79,2.3l-2.39.73a1.46,1.46,0,0,0-1.5-.95c-.63,0-.95.2-.95.59a.44.44,0,0,0,.22.4,2.48,2.48,0,0,0,.82.28,18.48,18.48,0,0,1,2.4.63,2.55,2.55,0,0,1,1.18.94,2.57,2.57,0,0,1,.47,1.56,2.77,2.77,0,0,1-1.15,2.31,4.86,4.86,0,0,1-3,.89C25.83,49.8,24.41,48.84,23.88,46.94Z"/><path class="cls-3" d="M41.37,40.26v9.39H38.49V46h-2.2v3.65H33.41V40.26h2.88v3.46h2.2V40.26Z"/><path class="cls-3" d="M46.86,42.51v7.14H44.13V42.51H42.19V40.26h6.62v2.25Z"/><path class="cls-3" d="M58,49.65h-3.2l-1.37-3.59h-.91v3.59H49.63V40.26h4.91a3.83,3.83,0,0,1,2.52.76A2.5,2.5,0,0,1,58,43a3,3,0,0,1-.33,1.43,2.76,2.76,0,0,1-1.33,1.1Zm-5.48-5.6h1.23a1.53,1.53,0,0,0,.88-.22.78.78,0,0,0,.33-.67q0-.9-1.11-.9H52.51Z"/><path class="cls-3" d="M69.06,44.61A2.19,2.19,0,0,1,67.59,44v5.61h2.88V44.1A2.17,2.17,0,0,1,69.06,44.61Z"/><path class="cls-3" d="M62.18,45.88h3.43V43.79H62.18V42.43h4.13a2.22,2.22,0,0,1-.26-1,2.16,2.16,0,0,1,.33-1.14h-7v9.39h7.07V47.41H62.18Z"/></g></g></svg>