<svg id="Layer_1" data-name="Layer 1" xmlns="http://www.w3.org/2000/svg" xmlns:xlink="http://www.w3.org/1999/xlink" viewBox="0 0 2560.35 2029.67"><defs><style>.cls-1{fill:none;}.cls-2{fill:#2a3843;}.cls-3,.cls-6{fill:#f2f5f7;}.cls-4{fill:#ff5;}.cls-5,.cls-6{opacity:0.74;}.cls-6{font-size:33.86px;font-family:GillSansMT-Bold, Gill Sans MT;font-weight:700;}.cls-7{opacity:0.3;}.cls-8{clip-path:url(#clip-path);}.cls-9{opacity:0.15;}.cls-10{fill:url(#linear-gradient);}.cls-11{fill:url(#linear-gradient-2);}.cls-12{fill:url(#linear-gradient-3);}.cls-13{fill:url(#linear-gradient-4);}.cls-14{fill:url(#linear-gradient-5);}.cls-15{fill:url(#linear-gradient-6);}.cls-16{fill:url(#linear-gradient-7);}.cls-17{fill:url(#linear-gradient-8);}.cls-18{fill:url(#linear-gradient-9);}.cls-19{fill:url(#linear-gradient-10);}.cls-20{fill:url(#linear-gradient-11);}.cls-21{fill:url(#linear-gradient-12);}.cls-22{fill:url(#linear-gradient-13);}.cls-23{fill:url(#linear-gradient-14);}.cls-24{opacity:0.44;}.cls-25{clip-path:url(#clip-path-2);}.cls-26{clip-path:url(#clip-path-3);}.cls-27{opacity:0.6;}.cls-28{opacity:0.2;}</style><clipPath id="clip-path" transform="translate(430.35 199)"><rect class="cls-1" y="-395.44" width="2622" height="1474.87"/></clipPath><linearGradient id="linear-gradient" x1="849.07" y1="1128.3" x2="1461.37" y2="1128.3" gradientTransform="translate(1617.83 -418.82) rotate(62.32)" gradientUnits="userSpaceOnUse"><stop offset="0" stop-color="#fff"/><stop offset="1"/></linearGradient><linearGradient id="linear-gradient-2" x1="62.26" y1="1549.56" x2="976.32" y2="1549.56" gradientTransform="matrix(1, 0, 0, 1, 0, 0)" xlink:href="#linear-gradient"/><linearGradient id="linear-gradient-3" x1="-196.8" y1="1228.86" x2="19.31" y2="1228.86" gradientTransform="translate(1040.73 736.66) rotate(62.32)" xlink:href="#linear-gradient"/><linearGradient id="linear-gradient-4" x1="770.46" y1="512.95" x2="994.27" y2="512.95" gradientTransform="translate(926.78 -506.71) rotate(62.32)" xlink:href="#linear-gradient"/><linearGradient id="linear-gradient-5" x1="1004.01" y1="635.45" x2="1227.82" y2="635.45" gradientTransform="translate(1160.33 -647.94) rotate(62.32)" xlink:href="#linear-gradient"/><linearGradient id="linear-gradient-6" x1="303.35" y1="267.95" x2="527.16" y2="267.95" gradientTransform="translate(459.67 -224.25) rotate(62.32)" xlink:href="#linear-gradient"/><linearGradient id="linear-gradient-7" x1="198.35" y1="468.14" x2="422.16" y2="468.14" gradientTransform="translate(580.72 -24.06) rotate(62.32)" xlink:href="#linear-gradient"/><linearGradient id="linear-gradient-8" x1="536.91" y1="390.45" x2="760.71" y2="390.45" gradientTransform="translate(693.22 -365.48) rotate(62.32)" xlink:href="#linear-gradient"/><linearGradient id="linear-gradient-9" x1="-430.35" y1="1106.36" x2="-214.24" y2="1106.36" gradientTransform="translate(807.18 877.89) rotate(62.32)" xlink:href="#linear-gradient"/><linearGradient id="linear-gradient-10" x1="381.96" y1="983.31" x2="888.72" y2="983.31" gradientTransform="matrix(1, 0, 0, 1, 0, 0)" xlink:href="#linear-gradient"/><linearGradient id="linear-gradient-11" x1="615.52" y1="1105.81" x2="1122.27" y2="1105.81" gradientTransform="matrix(1, 0, 0, 1, 0, 0)" xlink:href="#linear-gradient"/><linearGradient id="linear-gradient-12" x1="148.41" y1="860.81" x2="655.16" y2="860.81" gradientTransform="matrix(1, 0, 0, 1, 0, 0)" xlink:href="#linear-gradient"/><linearGradient id="linear-gradient-13" x1="-85.14" y1="839.17" x2="315.8" y2="839.17" gradientTransform="matrix(1, 0, 0, 1, 0, 0)" xlink:href="#linear-gradient"/><linearGradient id="linear-gradient-14" x1="-318.7" y1="515.8" x2="293.61" y2="515.8" gradientTransform="translate(450.07 287.33) rotate(62.32)" xlink:href="#linear-gradient"/><clipPath id="clip-path-2" transform="translate(430.35 199)"><rect class="cls-1" width="1920" height="1079"/></clipPath><clipPath id="clip-path-3" transform="translate(430.35 199)"><rect class="cls-1" width="1915" height="1080"/></clipPath></defs><rect class="cls-2" x="430.35" y="199" width="1920" height="1080"/><rect class="cls-3" x="973.85" y="852.5" width="833" height="93" rx="46.5"/><rect class="cls-4" x="1199.42" y="180.17" width="44.58" height="44.58" rx="22.29" transform="translate(689.46 1180.54) rotate(-48.39)"/><path class="cls-3" d="M736.2,285.92l-5.36-18.73H705.38l-5.7,18.73H676l29.33-95h30.84l29.8,95Zm-25.86-39.47h15.37L718,218.89Z" transform="translate(430.35 199)"/><path class="cls-3" d="M764.9,258.42,792,253.55Q795.4,265,809.52,265q11,0,11-5.84a5.43,5.43,0,0,0-2.54-4.77q-2.54-1.71-9.08-3-25-4.78-32.09-12.52a26,26,0,0,1-7.1-18.17,28.44,28.44,0,0,1,10.2-22.35q10.19-8.91,29.33-8.91,29,0,38.36,23.32l-24.16,7.31q-3.75-9.54-15.24-9.54-9.54,0-9.54,5.92a4.67,4.67,0,0,0,2.16,4.1q2.16,1.47,8.36,2.78,17.05,3.61,24.22,6.38a26.1,26.1,0,0,1,12,9.5,26.57,26.57,0,0,1,4.8,15.85q0,14.42-11.69,23.37t-30.7,8.95Q773.06,287.38,764.9,258.42Z" transform="translate(430.35 199)"/><path class="cls-3" d="M941.91,190.9v95H912.75V249H890.48v37H861.31v-95h29.17v34.94h22.27V190.9Z" transform="translate(430.35 199)"/><path class="cls-3" d="M997.46,213.66v72.26H969.83V213.66h-19.7V190.9h67v22.76Z" transform="translate(430.35 199)"/><path class="cls-3" d="M1110,285.92h-32.34l-13.88-36.34h-9.19v36.34h-29.17v-95h49.63q16.42,0,25.51,7.69t9.09,20.29a30.61,30.61,0,0,1-3.34,14.52q-3.35,6.3-13.51,11.1Zm-55.41-56.66h12.46a15.36,15.36,0,0,0,8.84-2.3,7.66,7.66,0,0,0,3.34-6.75q0-9.12-11.21-9.12h-13.43Z" transform="translate(430.35 199)"/><path class="cls-3" d="M1222,234.89a22.19,22.19,0,0,1-14.87-5.72v56.75h29.16V229.69A22.19,22.19,0,0,1,1222,234.89Z" transform="translate(430.35 199)"/><path class="cls-3" d="M1152.41,247.7h34.66V226.61h-34.66V212.83h41.76a22.16,22.16,0,0,1,.69-21.93H1123.8v95h71.48v-22.7h-42.87Z" transform="translate(430.35 199)"/><g class="cls-5"><path class="cls-2" d="M599.65,688.4h13.76v3.41h-9.7v5.86h8.22v3.41h-8.22v6.77h10v3.41H599.65Z" transform="translate(430.35 199)"/><path class="cls-2" d="M618.11,694.09h3.3l.3,2.32h.12a8,8,0,0,1,5.63-2.74c3.68,0,5.29,2.49,5.29,6.82v10.77h-4V701c0-2.82-.81-3.89-2.67-3.89-1.51,0-2.5.74-3.92,2.14v12h-4Z" transform="translate(430.35 199)"/><path class="cls-2" d="M638.28,705.47v-8.18h-2.45v-3l2.66-.18.48-4.69h3.34v4.69h4.37v3.2h-4.37v8.17c0,2,.78,3,2.43,3a5.5,5.5,0,0,0,1.79-.39l.69,3a11.13,11.13,0,0,1-3.51.63C639.75,711.68,638.28,709.18,638.28,705.47Z" transform="translate(430.35 199)"/><path class="cls-2" d="M648.6,702.69c0-5.58,3.88-9,7.92-9,4.64,0,7.09,3.36,7.09,8.15a10.46,10.46,0,0,1-.18,2h-10.9c.34,3.05,2.3,4.78,5.07,4.78a7.35,7.35,0,0,0,4-1.24l1.37,2.5a10.67,10.67,0,0,1-5.89,1.86C652.32,711.68,648.6,708.35,648.6,702.69ZM660.13,701c0-2.64-1.18-4.25-3.53-4.25-2,0-3.76,1.49-4.11,4.25Z" transform="translate(430.35 199)"/><path class="cls-2" d="M667.46,694.09h3.3l.3,3.06h.12c1.22-2.24,3-3.48,4.88-3.48A4.34,4.34,0,0,1,678,694l-.7,3.49a6.06,6.06,0,0,0-1.76-.28c-1.37,0-3,.94-4.06,3.56v10.47h-4Z" transform="translate(430.35 199)"/><path class="cls-2" d="M686.38,718l.74-3.12a4.63,4.63,0,0,0,1.23.24c1.8,0,2.85-1.23,3.42-3l.33-1.08-6.76-17h4.09l3,8.42c.52,1.52,1,3.21,1.51,4.85H694c.43-1.6.87-3.29,1.31-4.85l2.56-8.42h3.89L695.59,712c-1.42,3.87-3.23,6.27-7,6.27A6.68,6.68,0,0,1,686.38,718Z" transform="translate(430.35 199)"/><path class="cls-2" d="M703.44,702.69c0-5.72,3.89-9,8.17-9s8.16,3.3,8.16,9-3.88,9-8.16,9S703.44,708.38,703.44,702.69Zm12.19,0c0-3.44-1.51-5.73-4-5.73s-4,2.29-4,5.73,1.51,5.7,4,5.7S715.63,706.13,715.63,702.69Z" transform="translate(430.35 199)"/><path class="cls-2" d="M723.56,704.86V694.09h4v10.25c0,2.82.81,3.89,2.67,3.89,1.51,0,2.51-.7,3.81-2.38V694.09h4v17.17h-3.3l-.3-2.53h-.12c-1.51,1.79-3.17,2.95-5.52,2.95C725.17,711.68,723.56,709.19,723.56,704.86Z" transform="translate(430.35 199)"/><path class="cls-2" d="M743.19,694.09h3.3l.31,3.06h.11c1.23-2.24,3-3.48,4.88-3.48a4.36,4.36,0,0,1,2,.35l-.7,3.49a6.06,6.06,0,0,0-1.76-.28c-1.37,0-3,.94-4.06,3.56v10.47h-4Z" transform="translate(430.35 199)"/><path class="cls-2" d="M762.09,702.69c0-5.58,3.87-9,7.91-9,4.64,0,7.09,3.36,7.09,8.15a10.6,10.6,0,0,1-.17,2H766c.33,3.05,2.29,4.78,5.06,4.78a7.33,7.33,0,0,0,4-1.24l1.37,2.5a10.66,10.66,0,0,1-5.88,1.86C765.81,711.68,762.09,708.35,762.09,702.69ZM773.61,701c0-2.64-1.18-4.25-3.53-4.25-2,0-3.76,1.49-4.11,4.25Z" transform="translate(430.35 199)"/><path class="cls-2" d="M780.21,701h8.31v2.94h-8.31Z" transform="translate(430.35 199)"/><path class="cls-2" d="M792.54,694.09h3.3l.31,2.34h.11c1.46-1.52,3.12-2.76,5.27-2.76a4.63,4.63,0,0,1,4.74,3.08c1.65-1.75,3.34-3.08,5.53-3.08,3.62,0,5.3,2.49,5.3,6.82v10.77h-4V701c0-2.82-.84-3.89-2.64-3.89-1.1,0-2.27.7-3.6,2.14v12h-4V701c0-2.82-.84-3.89-2.65-3.89-1.06,0-2.26.7-3.59,2.14v12h-4Z" transform="translate(430.35 199)"/><path class="cls-2" d="M821.08,706.65c0-3.68,3-5.6,10.1-6.35-.06-1.85-.8-3.39-3.12-3.39a9.47,9.47,0,0,0-4.83,1.7l-1.48-2.69a13.38,13.38,0,0,1,7-2.25c4.29,0,6.4,2.64,6.4,7.42v10.17h-3.3l-.3-1.9h-.12a8.3,8.3,0,0,1-5.32,2.32A4.81,4.81,0,0,1,821.08,706.65Zm10.1,0V702.8c-4.66.59-6.21,1.8-6.21,3.54,0,1.52,1,2.18,2.47,2.18S829.9,707.83,831.18,706.66Z" transform="translate(430.35 199)"/><path class="cls-2" d="M839.58,688.8a2.49,2.49,0,1,1,2.49,2.28A2.3,2.3,0,0,1,839.58,688.8Zm.46,5.29h4v17.17h-4Z" transform="translate(430.35 199)"/><path class="cls-2" d="M849.19,706.84V686.57h4v20.48c0,1,.45,1.34.87,1.34a2.37,2.37,0,0,0,.63-.07l.5,3a5.55,5.55,0,0,1-2.12.35C850.24,711.68,849.19,709.83,849.19,706.84Z" transform="translate(430.35 199)"/><path class="cls-2" d="M864,694.27l2.52-.18h7.17v3.2H864Zm2.31-2c0-3.56,1.64-6.16,5.69-6.16a8.69,8.69,0,0,1,3.15.6l-.77,3a4.91,4.91,0,0,0-1.86-.4c-1.43,0-2.18.9-2.18,2.89v19h-4Z" transform="translate(430.35 199)"/><path class="cls-2" d="M875.25,702.69c0-5.72,3.89-9,8.17-9s8.17,3.3,8.17,9-3.89,9-8.17,9S875.25,708.38,875.25,702.69Zm12.2,0c0-3.44-1.51-5.73-4-5.73s-4,2.29-4,5.73,1.51,5.7,4,5.7S887.45,706.13,887.45,702.69Z" transform="translate(430.35 199)"/><path class="cls-2" d="M895.57,694.09h3.3l.31,3.06h.11c1.23-2.24,3-3.48,4.88-3.48a4.36,4.36,0,0,1,2,.35l-.7,3.49a6.06,6.06,0,0,0-1.76-.28c-1.37,0-3,.94-4.06,3.56v10.47h-4Z" transform="translate(430.35 199)"/><path class="cls-2" d="M915.4,704.86V694.09h4v10.25c0,2.82.81,3.89,2.67,3.89,1.51,0,2.5-.7,3.8-2.38V694.09h4v17.17h-3.3l-.31-2.53h-.11c-1.51,1.79-3.17,2.95-5.52,2.95C917,711.68,915.4,709.19,915.4,704.86Z" transform="translate(430.35 199)"/><path class="cls-2" d="M935,694.09h3.3l.31,1.83h.11a8.34,8.34,0,0,1,5.17-2.25c4.3,0,6.76,3.44,6.76,8.74,0,5.87-3.51,9.27-7.33,9.27a6.89,6.89,0,0,1-4.42-1.89l.13,2.85v5.42h-4Zm11.51,8.36c0-3.43-1.12-5.45-3.73-5.45a5.44,5.44,0,0,0-3.75,1.93v8a5.36,5.36,0,0,0,3.44,1.43C944.79,708.35,946.54,706.34,946.54,702.45Z" transform="translate(430.35 199)"/><path class="cls-2" d="M953.69,702.69c0-5.6,3.51-9,7.28-9a6.32,6.32,0,0,1,4.5,1.89l-.16-2.77v-6.22h4v24.69H966l-.31-1.86h-.11a7.19,7.19,0,0,1-4.88,2.28C956.46,711.68,953.69,708.35,953.69,702.69Zm11.62,3.73v-8a5.08,5.08,0,0,0-3.49-1.42c-2.18,0-4,2.07-4,5.65,0,3.73,1.43,5.7,3.9,5.7A4.54,4.54,0,0,0,965.31,706.42Z" transform="translate(430.35 199)"/><path class="cls-2" d="M973.53,706.65c0-3.68,3.05-5.6,10.1-6.35-.06-1.85-.8-3.39-3.12-3.39a9.4,9.4,0,0,0-4.82,1.7l-1.49-2.69a13.38,13.38,0,0,1,7-2.25c4.29,0,6.41,2.64,6.41,7.42v10.17h-3.3l-.31-1.9h-.11a8.33,8.33,0,0,1-5.33,2.32A4.81,4.81,0,0,1,973.53,706.65Zm10.1,0V702.8c-4.66.59-6.21,1.8-6.21,3.54,0,1.52,1,2.18,2.47,2.18S982.36,707.83,983.63,706.66Z" transform="translate(430.35 199)"/><path class="cls-2" d="M992.53,705.47v-8.18h-2.45v-3l2.66-.18.48-4.69h3.34v4.69h4.38v3.2h-4.38v8.17c0,2,.78,3,2.43,3a5.5,5.5,0,0,0,1.79-.39l.69,3a11.13,11.13,0,0,1-3.51.63C994,711.68,992.53,709.18,992.53,705.47Z" transform="translate(430.35 199)"/><path class="cls-2" d="M1002.86,702.69c0-5.58,3.87-9,7.91-9,4.64,0,7.09,3.36,7.09,8.15a9.67,9.67,0,0,1-.18,2h-10.89c.33,3.05,2.29,4.78,5.06,4.78a7.35,7.35,0,0,0,4-1.24l1.37,2.5a10.66,10.66,0,0,1-5.88,1.86C1006.58,711.68,1002.86,708.35,1002.86,702.69Zm11.52-1.65c0-2.64-1.18-4.25-3.53-4.25-2,0-3.76,1.49-4.11,4.25Z" transform="translate(430.35 199)"/><path class="cls-2" d="M1020,709.29l1.88-2.56a7.55,7.55,0,0,0,4.74,1.91c1.87,0,2.75-.88,2.75-2,0-1.44-1.86-2.08-3.69-2.78-2.25-.85-4.83-2.14-4.83-5s2.41-5.13,6.26-5.13a9.26,9.26,0,0,1,5.7,2.05L1031,698.2a6.41,6.41,0,0,0-3.76-1.5c-1.72,0-2.54.83-2.54,1.91,0,1.35,1.73,1.87,3.59,2.55,2.32.87,4.92,2,4.92,5.19,0,2.95-2.33,5.33-6.67,5.33A10.76,10.76,0,0,1,1020,709.29Z" transform="translate(430.35 199)"/></g><text class="cls-6" transform="translate(1170.02 634.48)">COMING SOON</text><rect class="cls-4" x="1271.35" y="1074" width="238" height="86" rx="26.49"/><path class="cls-2" d="M888.68,928.9l2.93-3.45a11.14,11.14,0,0,0,7.38,3.23c3.19,0,4.94-1.45,4.94-3.66s-1.83-3.07-4.4-4.16l-3.87-1.69c-2.79-1.16-5.73-3.37-5.73-7.51,0-4.51,4-8,9.51-8a12.42,12.42,0,0,1,8.74,3.62l-2.59,3.19a9.08,9.08,0,0,0-6.15-2.44c-2.68,0-4.43,1.26-4.43,3.33s2.15,3,4.5,4l3.82,1.6c3.37,1.41,5.73,3.54,5.73,7.64,0,4.6-3.81,8.42-10.17,8.42A14.61,14.61,0,0,1,888.68,928.9Z" transform="translate(430.35 199)"/><path class="cls-2" d="M914.09,920.1V904.19h5v16.29c0,6.17,2.31,8.2,5.74,8.2s5.86-2,5.86-8.2V904.19h4.83V920.1c0,9.31-4.12,12.94-10.69,12.94S914.09,929.41,914.09,920.1Z" transform="translate(430.35 199)"/><path class="cls-2" d="M942.6,904.19h9.06c5.82,0,10.1,1.79,10.1,7a6.34,6.34,0,0,1-3.93,6.13v.17a6.5,6.5,0,0,1,5.44,6.73c0,5.66-4.64,8.32-10.88,8.32H942.6Zm8.61,11.7c3.95,0,5.63-1.54,5.63-4,0-2.74-1.85-3.78-5.53-3.78h-3.69v7.78Zm.66,12.72c4.16,0,6.48-1.49,6.48-4.68,0-3-2.25-4.28-6.48-4.28h-4.25v9Z" transform="translate(430.35 199)"/><path class="cls-2" d="M968.46,904.19h5.68l5,13.85c.62,1.8,1.19,3.71,1.82,5.56h.17c.62-1.85,1.16-3.76,1.78-5.56l4.91-13.85h5.68v28.34H988.9v-13c0-2.61.4-6.38.64-9h-.17l-2.29,6.59-4.66,12.73h-3l-4.68-12.73-2.25-6.59h-.17c.24,2.63.64,6.4.64,9v13h-4.52Z" transform="translate(430.35 199)"/><path class="cls-2" d="M1000.72,904.19h5v28.34h-5Z" transform="translate(430.35 199)"/><path class="cls-2" d="M1018.66,908.42h-8.18v-4.23h21.38v4.23h-8.18v24.11h-5Z" transform="translate(430.35 199)"/><g class="cls-7"><g class="cls-8"><g class="cls-9"><rect class="cls-10" x="654.14" y="1045.41" width="1002.17" height="165.77" transform="translate(49.78 1826.26) rotate(-62.32)"/><path class="cls-11" d="M976.29,1647.89,880.5,1830.53a.27.27,0,0,1-.36.11l-771.2-404.5c-40.56-21.27-58.78-71.33-38.09-112.19a82.84,82.84,0,0,1,112.46-36L774.5,1588a40.73,40.73,0,0,0,55-17.15h0a.25.25,0,0,1,.35-.11l146.34,76.75A.27.27,0,0,1,976.29,1647.89Z" transform="translate(430.35 199)"/><rect class="cls-12" x="-171.63" y="1145.97" width="165.77" height="165.77" rx="11" transform="translate(-705.43 778.48) rotate(-62.32)"/><rect class="cls-13" x="799.48" y="430.07" width="165.77" height="165.77" transform="translate(448.6 1255.1) rotate(-62.32)"/><rect class="cls-14" x="1033.03" y="552.57" width="165.77" height="165.77" transform="translate(465.19 1527.53) rotate(-62.32)"/><rect class="cls-15" x="332.37" y="185.07" width="165.77" height="165.77" transform="translate(415.43 710.23) rotate(-62.32)"/><rect class="cls-16" x="227.37" y="385.26" width="165.77" height="165.77" transform="translate(181.92 724.45) rotate(-62.32)"/><rect class="cls-17" x="565.92" y="307.57" width="165.77" height="165.77" transform="translate(432.02 982.66) rotate(-62.32)"/><rect class="cls-18" x="-405.18" y="1023.47" width="165.77" height="165.77" rx="11" transform="translate(-722.01 506.05) rotate(-62.32)"/><path class="cls-19" d="M528.77,1365.55l-146.81-77L741.47,603.14a3.88,3.88,0,0,1,5.24-1.64l139.93,73.4a3.88,3.88,0,0,1,1.63,5.24Z" transform="translate(430.35 199)"/><path class="cls-20" d="M762.32,1488.05l-146.8-77L975,725.64a3.89,3.89,0,0,1,5.24-1.64l139.93,73.39a3.89,3.89,0,0,1,1.63,5.25Z" transform="translate(430.35 199)"/><path class="cls-21" d="M295.21,1243.05l-146.8-77,359.5-685.41a3.89,3.89,0,0,1,5.24-1.64l139.93,73.4a3.88,3.88,0,0,1,1.64,5.24Z" transform="translate(430.35 199)"/><path class="cls-22" d="M61.66,1120.55l-146.8-77L168.55,559.87a3.89,3.89,0,0,1,5.24-1.64l139.93,73.4a3.88,3.88,0,0,1,1.64,5.24Z" transform="translate(430.35 199)"/><rect class="cls-23" x="-513.63" y="432.92" width="1002.17" height="165.77" transform="translate(-33.15 464.11) rotate(-62.32)"/></g></g></g><g class="cls-24"><g class="cls-25"><circle class="cls-4" cx="2282.35" cy="278" r="278"/></g></g><g class="cls-26"><circle class="cls-4" cx="500.8" cy="1263.55" r="103.31"/></g><circle class="cls-4" cx="1318.35" cy="692.5" r="20.5"/><g class="cls-27"><circle class="cls-4" cx="1390.85" cy="692.5" r="20.5"/></g><g class="cls-28"><circle class="cls-4" cx="1462.35" cy="692.5" r="20.5"/></g></svg>