<svg xmlns="http://www.w3.org/2000/svg" viewBox="0 0 151.09 28.52"><defs><style>.cls-1{fill:#ff5;}.cls-2{fill:#f2f5f7;}</style></defs><g id="Layer_2" data-name="Layer 2"><g id="Layer_1-2" data-name="Layer 1"><rect class="cls-1" x="139.23" width="11.86" height="11.86" rx="5.93" transform="translate(44.34 110.54) rotate(-48.39)"/><path class="cls-2" d="M16,28.13l-1.42-5H7.82l-1.52,5H0L7.8,2.85H16l7.93,25.28ZM9.13,17.63h4.09l-2-7.33Z"/><path class="cls-2" d="M23.65,20.81l7.2-1.29c.61,2,2.16,3.05,4.67,3.05,1.95,0,2.92-.51,2.92-1.55a1.43,1.43,0,0,0-.67-1.27,7.27,7.27,0,0,0-2.42-.8c-4.43-.85-7.28-2-8.53-3.33a6.93,6.93,0,0,1-1.89-4.84,7.55,7.55,0,0,1,2.71-5.94q2.71-2.37,7.8-2.37,7.73,0,10.21,6.2l-6.43,1.94a3.93,3.93,0,0,0-4-2.53c-1.69,0-2.54.52-2.54,1.57a1.24,1.24,0,0,0,.57,1.09,7,7,0,0,0,2.23.74,47.23,47.23,0,0,1,6.44,1.7,6.93,6.93,0,0,1,3.18,2.52,7,7,0,0,1,1.28,4.22,7.48,7.48,0,0,1-3.11,6.22,13.1,13.1,0,0,1-8.16,2.38Q25.82,28.52,23.65,20.81Z"/><path class="cls-2" d="M70.74,2.85V28.13H63V18.3H57.05v9.83H49.29V2.85h7.76v9.3H63V2.85Z"/><path class="cls-2" d="M85.51,8.91V28.13H78.16V8.91H72.92V2.85H90.75V8.91Z"/><path class="cls-2" d="M115.45,28.13h-8.6l-3.69-9.67h-2.45v9.67H93V2.85h13.21a10.2,10.2,0,0,1,6.78,2.05,6.72,6.72,0,0,1,2.42,5.4,8.17,8.17,0,0,1-.89,3.86,7.44,7.44,0,0,1-3.59,2.95ZM100.71,13.06H104a4.14,4.14,0,0,0,2.35-.61,2.06,2.06,0,0,0,.89-1.8c0-1.62-1-2.43-3-2.43h-3.58Z"/><path class="cls-2" d="M145.24,14.55a5.88,5.88,0,0,1-4-1.52v15.1H149v-15A5.9,5.9,0,0,1,145.24,14.55Z"/><path class="cls-2" d="M126.73,18H136V12.35h-9.22V8.69h11.11A5.88,5.88,0,0,1,138,2.85h-18.9V28.13h19v-6h-11.4Z"/></g></g></svg>