<svg xmlns="http://www.w3.org/2000/svg" xmlns:xlink="http://www.w3.org/1999/xlink" viewBox="0 0 278.31 255.32"><defs><style>.cls-1{fill:none;}.cls-2{fill:#ff5;}.cls-3{clip-path:url(#clip-path);}.cls-4{fill:#2a3843;}</style><clipPath id="clip-path" transform="translate(8.54 53.44)"><rect class="cls-1" width="262" height="148" rx="26.98"/></clipPath></defs><g id="Layer_2" data-name="Layer 2"><g id="Layer_1-2" data-name="Layer 1"><rect class="cls-2" x="8.54" y="53.44" width="262" height="148" rx="26.98"/><g class="cls-3"><rect class="cls-4" x="221.83" y="5.85" width="26.13" height="157.98" transform="translate(42.14 -9.56) rotate(16.44)"/><path class="cls-4" d="M223.2,170.67,214,201.85a0,0,0,0,1-.06,0L82.28,163c-6.93-2-11.28-9.23-9.34-16.18a13.06,13.06,0,0,1,16.28-9l100.94,29.78a6.42,6.42,0,0,0,8-4.34h0s0,0,.05,0l25,7.37S223.2,170.65,223.2,170.67Z" transform="translate(8.54 53.44)"/><rect class="cls-4" x="32.59" y="125.54" width="26.13" height="26.13" rx="7.92" transform="translate(200.05 187.48) rotate(106.44)"/><rect class="cls-4" x="160.73" y="-14.98" width="26.13" height="26.13" transform="translate(229.67 -115.72) rotate(106.44)"/><rect class="cls-4" x="200.61" y="-3.22" width="26.13" height="26.13" transform="translate(292.11 -138.87) rotate(106.44)"/><rect class="cls-4" x="80.98" y="-38.51" width="26.13" height="26.13" transform="translate(104.79 -69.41) rotate(106.44)"/><rect class="cls-4" x="70.9" y="-4.33" width="26.13" height="26.13" transform="translate(124.64 -15.89) rotate(106.44)"/><rect class="cls-4" x="120.86" y="-26.75" width="26.13" height="26.13" transform="translate(167.23 -92.57) rotate(106.44)"/><rect class="cls-4" x="-7.29" y="113.78" width="26.13" height="26.13" rx="7.92" transform="translate(137.61 210.63) rotate(106.44)"/><path class="cls-4" d="M141,17h18.37a3.88,3.88,0,0,1,3.88,3.88V139.58a0,0,0,0,1,0,0H137.08a0,0,0,0,1,0,0V20.84A3.88,3.88,0,0,1,141,17Z" transform="translate(36.82 14.15) rotate(16.44)"/><path class="cls-4" d="M180.83,28.72H199.2a3.88,3.88,0,0,1,3.88,3.88V151.34a0,0,0,0,1,0,0H177a0,0,0,0,1,0,0V32.61a3.88,3.88,0,0,1,3.88-3.88Z" transform="translate(41.78 3.35) rotate(16.44)"/><path class="cls-4" d="M101.09,5.2h18.37a3.88,3.88,0,0,1,3.88,3.88V127.81a0,0,0,0,1,0,0H97.2a0,0,0,0,1,0,0V9.08a3.88,3.88,0,0,1,3.88-3.88Z" transform="translate(31.86 24.95) rotate(16.44)"/><path class="cls-4" d="M56.13,28.61H74.5a3.88,3.88,0,0,1,3.88,3.88v82.83a0,0,0,0,1,0,0H52.25a0,0,0,0,1,0,0V32.49a3.88,3.88,0,0,1,3.88-3.88Z" transform="matrix(0.96, 0.28, -0.28, 0.96, 31.57, 37.9)"/><rect class="cls-4" x="22.46" y="-52.97" width="26.13" height="157.98" transform="translate(17.35 44.45) rotate(16.44)"/></g></g></g></svg>