<svg width="208" height="87" viewBox="0 0 208 87" fill="none" xmlns="http://www.w3.org/2000/svg">
<path d="M0 78.4802L0.0558801 76.5164C0.409787 76.4009 1.03378 76.2565 1.92786 76.0832C3.36212 75.7944 4.22826 75.5345 4.52629 75.3034C4.84294 75.0724 5.22479 74.514 5.67183 73.6284L11.3157 58.3508L17.9375 40.3874C18.5522 40.4066 19.1389 40.4163 19.6977 40.4163H20.955L21.2065 40.9361L26.0681 52.8347C27.167 55.3569 28.1542 57.8117 29.0297 60.1991C29.9052 62.5673 30.6595 64.5023 31.2928 66.004C31.6654 66.9089 32.1776 68.2663 32.8295 70.0761C33.1648 71.0581 33.6771 72.2903 34.3662 73.7728C34.7388 74.5814 35.0182 75.0531 35.2044 75.1879C35.5397 75.4767 36.0799 75.6692 36.825 75.7655C37.5887 75.8618 38.4082 76.0832 39.2837 76.4298C39.3768 77.0651 39.4234 77.5368 39.4234 77.8449C39.4234 77.9797 39.4141 78.1914 39.3955 78.4802C38.0171 78.4802 36.499 78.4129 34.8412 78.2781C33.1834 78.1433 31.6933 78.0759 30.3708 78.0759C28.8993 78.0759 27.8376 78.0952 27.1857 78.1337L22.4358 78.3936L21.0668 78.4514C21.0668 77.7775 21.0947 77.1325 21.1506 76.5164L24.2519 75.8233C25.1833 75.573 25.7235 75.3804 25.8725 75.2457C26.0587 75.0531 26.1519 74.8317 26.1519 74.5814C26.1519 74.3311 26.1053 74.0712 26.0122 73.8017L24.8946 70.9714L22.6873 65.3109L12.0142 65.282C11.6231 66.2062 10.8128 68.4685 9.58343 72.0689C9.22952 73.0893 9.05257 73.7824 9.05257 74.1482C9.05257 74.6488 9.18296 75.005 9.44373 75.2168C9.87215 75.5826 10.6917 75.8425 11.9025 75.9966C12.0701 76.0351 12.7313 76.141 13.8862 76.3142C13.9048 77.0074 13.9141 77.4887 13.9141 77.7582C13.9141 77.97 13.8955 78.1914 13.8583 78.4225C12.7034 78.4225 9.94665 78.2588 5.58801 77.9315L4.44247 78.1337C3.06409 78.3647 1.75091 78.4802 0.502921 78.4802H0ZM13.1318 62.2496C17.4905 62.3074 20.0609 62.3363 20.8433 62.3363L21.5418 62.3074C20.983 60.5938 20.2565 58.6011 19.3624 56.3292C18.4684 54.0381 17.7419 52.2956 17.1831 51.1019L13.1318 62.2496Z" fill="#2A3843"/>
<path d="M40.7924 70.4227C41.3512 70.3072 41.761 70.2494 42.0218 70.2494C42.1522 70.2494 42.3478 70.259 42.6086 70.2783L42.86 70.5671C43.8659 72.3962 44.5271 73.5032 44.8438 73.8883C45.4957 74.6777 46.1383 75.3131 46.7716 75.7944C47.2 76.1024 47.8706 76.4201 48.7833 76.7474C49.398 76.9785 50.0499 77.094 50.7391 77.094C51.9126 77.094 52.9184 76.7089 53.7566 75.9388C54.5948 75.1494 55.0139 74.3023 55.0139 73.3973C55.0139 72.7812 54.8556 72.2614 54.5389 71.8378C54.2223 71.395 53.589 70.9618 52.639 70.5382C52.1734 70.3264 50.9999 69.9799 49.1186 69.4985C47.2559 69.0172 46.129 68.6995 45.7378 68.5455C44.8624 68.1989 44.0801 67.7176 43.3909 67.1015C42.7203 66.4854 42.2081 65.7922 41.8542 65.0221C41.3699 63.9247 41.1277 62.9813 41.1277 62.1919C41.1277 60.7286 41.3326 59.5349 41.7424 58.6107C42.1522 57.6673 42.7296 56.8394 43.4747 56.127C44.0149 55.5879 44.8251 55.097 45.9055 54.6542C47.0045 54.2113 48.1779 53.9899 49.4259 53.9899C51.1955 53.9899 52.7508 54.1151 54.0919 54.3654C55.433 54.6157 56.5693 54.9911 57.5006 55.4917C57.6124 55.9345 57.7707 56.9549 57.9756 58.553C58.1805 60.151 58.2829 61.0944 58.2829 61.3832C58.2829 61.518 58.255 61.6624 58.1991 61.8164C57.7148 61.9705 57.3143 62.0475 56.9977 62.0475C56.8114 62.0475 56.5413 62.0282 56.1874 61.9897C56.0198 61.7202 55.7962 61.3158 55.5168 60.7767C54.6228 59.0632 53.7007 57.8598 52.7508 57.1667C51.8195 56.4544 50.7391 56.0982 49.5097 56.0982C48.2245 56.0982 47.1442 56.4832 46.2687 57.2534C45.6354 57.8117 45.3187 58.5722 45.3187 59.5349C45.3187 60.1703 45.654 60.8152 46.3246 61.4699C46.9765 62.1437 48.1127 62.6539 49.7333 63.0005C52.1734 63.5589 53.9708 64.1172 55.1257 64.6756C56.8021 65.4842 57.9756 66.4372 58.6461 67.5347C59.3353 68.6321 59.6799 69.9029 59.6799 71.3469C59.6799 73.5802 58.8603 75.4478 57.2212 76.9496C55.6007 78.4321 53.2258 79.1734 50.0965 79.1734C49.6867 79.1734 48.6157 79.0771 46.8834 78.8846C46.1011 78.7883 45.179 78.5958 44.1173 78.307C43.8565 78.2299 43.1767 77.9508 42.0777 77.4694C41.8728 77.3539 41.7238 77.2191 41.6307 77.0651C41.5561 76.8918 41.4351 76.0832 41.2674 74.6392C40.9694 72.2903 40.8111 70.8848 40.7924 70.4227Z" fill="#2A3843"/>
<path d="M63.2004 76.6897C63.4984 76.6127 64.3273 76.4971 65.687 76.3431C66.2831 76.2661 66.6556 76.1313 66.8046 75.9388C66.9909 75.65 67.084 74.9665 67.084 73.8883V71.8378L67.1678 69.6718V67.3036L67.1958 66.726L67.1678 65.282L67.2237 64.7911L67.3355 54.3076V53.499C67.3355 49.9178 67.2423 47.7037 67.0561 46.8565C66.9443 46.3559 66.6742 45.9612 66.2458 45.6724C65.836 45.3836 64.8581 45.1141 63.3121 44.8638V44.2573C63.3121 43.9685 63.3307 43.6123 63.368 43.1888L65.715 42.6689C66.1806 42.5341 66.6277 42.4186 67.0561 42.3224C68.0992 42.0913 69.4124 41.61 70.9956 40.8784C71.275 40.7051 71.5358 40.5607 71.7779 40.4452L73.2867 40.5607L73.2308 57.831C74.9259 56.4447 76.4719 55.4628 77.8689 54.8852C79.2659 54.3076 80.7188 54.0188 82.2275 54.0188C83.6618 54.0188 84.9005 54.2883 85.9436 54.8274C87.0053 55.3473 87.8248 56.0019 88.4023 56.7913C88.9797 57.5614 89.3895 58.5048 89.6316 59.6215C89.7993 60.3724 89.8831 61.8164 89.8831 63.9536V65.8019L89.911 69.874L89.7713 75.7655C89.8458 75.9388 89.9297 76.0543 90.0228 76.1121C90.2463 76.2083 90.7958 76.3431 91.6713 76.5164C92.1742 76.6127 92.5653 76.6993 92.8447 76.7763C92.9938 77.0651 93.0683 77.2962 93.0683 77.4694L93.0403 77.7005C93.0031 77.9123 92.9844 78.2299 92.9844 78.6535L92.3418 78.6824C92.0624 78.6824 91.5129 78.6439 90.6934 78.5669C89.1287 78.4129 87.8155 78.3358 86.7538 78.3358C86.0646 78.3358 85.1426 78.3743 83.9877 78.4514C83.1682 78.4899 82.1251 78.5091 80.8585 78.5091C80.6536 78.5091 80.4673 78.4802 80.2997 78.4225V77.7294L80.2438 77.3539C80.2438 77.1999 80.2903 76.9881 80.3835 76.7186C80.8119 76.5068 81.3055 76.372 81.8643 76.3142C82.4417 76.2372 82.9819 76.1602 83.4848 76.0832C83.5593 75.7174 83.6059 75.4863 83.6245 75.3901L83.7642 71.1736V64.098C83.7642 61.9993 83.6525 60.5842 83.4289 59.8526C83.2054 59.1017 82.7398 58.4952 82.0319 58.0331C81.3241 57.5518 80.4673 57.3111 79.4615 57.3111C78.288 57.3111 77.1424 57.5999 76.0248 58.1775C74.9259 58.7359 73.9852 59.4001 73.2029 60.1703V65.2243C73.2029 67.9968 73.1749 70.0761 73.1191 71.4624C73.0818 72.2903 73.0632 72.8101 73.0632 73.0219C73.0632 74.3504 73.147 75.2649 73.3147 75.7655C73.3892 75.9966 73.5941 76.2083 73.9293 76.4009C74.6185 76.4586 75.1866 76.4971 75.6337 76.5164C76.0993 76.5164 76.4719 76.5549 76.7513 76.6319C76.7885 77.1133 76.8072 77.4502 76.8072 77.6427C76.8072 77.9123 76.7699 78.2396 76.6954 78.6246L73.5941 78.4802C72.4206 78.384 71.3682 78.3358 70.4368 78.3358L66.5252 78.538L63.7871 78.5091C63.6008 78.2396 63.4053 77.7582 63.2004 77.0651V76.6897Z" fill="#2A3843"/>
<path d="M95.4152 56.618C97.6132 55.6553 99.1964 54.7119 100.165 53.7878C101.152 52.8636 102.205 51.3618 103.322 49.2825H104.887C105.055 49.783 105.138 50.3125 105.138 50.8709C105.138 51.872 105.129 52.6518 105.11 53.2102L105.027 54.9141C105.027 55.0103 105.036 55.2318 105.055 55.5783L105.697 55.6072C105.79 55.6072 106.666 55.5687 108.324 55.4917C108.454 55.4917 109.152 55.4724 110.419 55.4339C110.531 55.9538 110.587 56.4158 110.587 56.8202C110.587 57.263 110.521 57.7828 110.391 58.3797C109.776 58.4567 109.311 58.4952 108.994 58.4952C108.845 58.4952 108.547 58.476 108.1 58.4375H106.647L106.144 58.4086L104.803 58.4663L104.747 69.4985C104.729 71.6357 104.766 72.9738 104.859 73.5129C104.971 74.0327 105.194 74.5333 105.53 75.0146C105.958 75.2264 106.433 75.3323 106.954 75.3323C107.457 75.3323 107.83 75.2842 108.072 75.1879C108.314 75.0916 108.724 74.8125 109.301 74.3504C109.413 74.2541 109.59 74.1193 109.832 73.9461C110.279 74.3119 110.643 74.6777 110.922 75.0435L111.034 75.3901C110.382 76.449 109.46 77.2865 108.268 77.9026C107.094 78.4995 105.837 78.7979 104.496 78.7979C102.763 78.7979 101.357 78.2299 100.277 77.094C99.1964 75.958 98.6563 74.1964 98.6563 71.8089L98.768 66.726V58.4952L97.9019 58.4663L95.8902 58.4952L95.527 58.4086C95.4152 58.2353 95.3593 58.0716 95.3593 57.9176C95.3593 57.8021 95.378 57.3689 95.4152 56.618Z" fill="#2A3843"/>
<path d="M112.738 77.094C112.98 76.8822 113.297 76.7282 113.688 76.6319C114.638 76.4201 115.541 76.0351 116.398 75.4767C116.566 75.0146 116.65 73.4551 116.65 70.7981C116.65 65.927 116.547 62.6347 116.342 60.9211C116.305 60.6131 116.156 60.3435 115.895 60.1125C115.43 59.8622 114.796 59.6408 113.995 59.4483C113.623 59.352 113.399 59.1402 113.325 58.8129L113.241 57.7443C114.619 57.5518 115.867 57.0705 116.985 56.3003C118.103 55.5109 118.941 54.7119 119.5 53.9033C119.798 53.4604 120.058 53.1235 120.282 52.8925L122.238 52.8058C122.331 53.2487 122.377 53.6145 122.377 53.9033C122.377 54.1151 122.368 54.375 122.349 54.683C122.331 55.3569 122.321 55.9153 122.321 56.3581C122.321 56.5699 122.331 57.3689 122.349 58.7551C123.113 57.4074 123.672 56.5025 124.026 56.0404C124.193 55.8286 124.687 55.3569 125.507 54.6253C126.14 54.1439 126.857 53.9033 127.658 53.9033C128.645 53.9033 129.502 54.2498 130.229 54.943C130.955 55.6361 131.318 56.4351 131.318 57.34C131.318 58.2449 131.039 59.0632 130.48 59.7948C129.94 60.5072 129.213 60.8634 128.301 60.8634C127.5 60.8634 126.661 60.5168 125.786 59.8237C125.264 59.4001 124.845 59.1883 124.529 59.1883L124.333 59.2172C123.942 59.352 123.588 59.7178 123.271 60.3147C122.75 61.2773 122.489 62.2785 122.489 63.3182L122.545 64.098C122.619 65.5227 122.675 68.8632 122.713 74.1193C122.769 74.6007 122.945 75.082 123.243 75.5634C123.579 75.8329 123.914 76.0254 124.249 76.141C124.603 76.2565 125.209 76.3527 126.065 76.4298C126.922 76.5068 127.444 76.6319 127.63 76.8052C127.816 76.9592 127.909 77.2191 127.909 77.585C127.909 77.7967 127.854 78.0759 127.742 78.4225H125.115L119.779 78.1337C118.438 78.1337 117.218 78.1914 116.119 78.307H115.644C115.513 78.307 114.545 78.3551 112.738 78.4514C112.682 78.1433 112.654 77.9123 112.654 77.7582C112.654 77.6042 112.682 77.3828 112.738 77.094Z" fill="#2A3843"/>
<path d="M134.28 63.2027C134.764 61.5661 135.193 60.4783 135.565 59.9392C136.608 58.3604 137.716 57.1282 138.89 56.2426C140.082 55.3569 141.153 54.7697 142.103 54.4809C143.332 54.1151 144.329 53.9322 145.093 53.9322C146.844 53.9322 148.259 54.0766 149.339 54.3654C150.42 54.6349 151.323 55.0296 152.05 55.5494C153.093 56.3003 153.931 57.0608 154.564 57.831C155.198 58.6011 155.71 59.506 156.101 60.5457C156.511 61.5854 156.734 62.8465 156.772 64.329L153.67 64.2712C152.813 64.2712 150.932 64.1846 148.026 64.0113C146.946 63.9343 146.201 63.8958 145.791 63.8958C145.661 63.8958 144.655 63.9054 142.774 63.9247H140.371C140.333 64.1942 140.315 64.4253 140.315 64.6178C140.315 65.6382 140.436 66.7164 140.678 67.8524C140.92 68.9691 141.283 69.9606 141.768 70.827C142.252 71.6742 142.848 72.4058 143.556 73.0219C144.282 73.638 145.027 74.0808 145.791 74.3504L147.412 74.8991C148.846 74.8991 149.805 74.851 150.289 74.7547C151.184 74.5622 151.966 74.3215 152.636 74.0327C153.326 73.7247 154.154 73.2144 155.123 72.5021C155.794 73.0026 156.352 73.4551 156.799 73.8594C155.16 75.727 153.456 77.0844 151.686 77.9315C149.936 78.7594 147.97 79.1734 145.791 79.1734C144.32 79.1734 143.118 79.0386 142.187 78.769C140.939 78.4225 139.812 77.893 138.806 77.1806C137.8 76.4683 136.934 75.5826 136.208 74.5237C135.481 73.4647 134.941 72.3769 134.587 71.2602C134.121 69.797 133.889 68.6225 133.889 67.7368C133.889 66.0618 134.019 64.5504 134.28 63.2027ZM150.513 61.9608C150.494 60.8826 150.289 59.8526 149.898 58.8707C149.507 57.8887 148.902 57.1282 148.082 56.5891C147.263 56.0308 146.434 55.7516 145.596 55.7516C144.348 55.7516 143.221 56.3196 142.215 57.4555C141.209 58.5915 140.641 60.1318 140.51 62.0763L146.881 62.1052C147.291 62.1052 147.868 62.0763 148.613 62.0186C149.153 61.9608 149.535 61.9319 149.759 61.9319C149.926 61.9319 150.178 61.9416 150.513 61.9608Z" fill="#2A3843"/>
<path d="M163.505 44.0552C163.505 43.0155 163.831 42.1683 164.483 41.5137C165.135 40.8398 165.973 40.5029 166.998 40.5029C168.097 40.5029 169.009 40.8591 169.736 41.5715C170.462 42.2646 170.825 43.054 170.825 43.9396C170.825 44.5943 170.676 45.2489 170.378 45.9035C170.099 46.5581 169.643 47.0876 169.009 47.4919C168.395 47.877 167.761 48.0695 167.109 48.0695C166.215 48.0695 165.386 47.6748 164.623 46.8854C163.878 46.096 163.505 45.1526 163.505 44.0552ZM159.593 78.5091L159.538 76.6319L162.695 76.1987C163.16 76.0639 163.477 75.8714 163.645 75.6211C163.831 75.3516 163.924 74.7643 163.924 73.8594V73.5417C163.924 73.3107 163.934 72.8968 163.952 72.2999C163.989 71.6838 164.008 71.1447 164.008 70.6826C164.008 70.3168 163.98 69.614 163.924 68.5744L163.952 67.1304L163.924 65.773L163.98 61.0655C163.98 60.4687 163.924 59.8526 163.812 59.2172C163.608 58.9284 163.235 58.6781 162.695 58.4663C162.155 58.2545 161.214 58.1005 159.873 58.0042V56.387C161.791 56.2714 163.477 55.8575 164.93 55.1451C165.917 54.683 166.988 53.8648 168.143 52.6903H170.015C170.09 55.0777 170.127 58.1775 170.127 61.9897L169.931 73.7728C169.931 74.5814 169.969 75.3131 170.043 75.9677C170.62 76.1795 171.561 76.3912 172.865 76.603C173.368 76.68 173.768 76.7763 174.066 76.8918L174.038 78.4802C173.536 78.4995 173.163 78.5091 172.921 78.5091C172.641 78.5091 172.213 78.4899 171.636 78.4514C169.736 78.3551 167.193 78.307 164.008 78.307C163.095 78.307 162.211 78.3455 161.354 78.4225C160.497 78.4802 159.91 78.5091 159.593 78.5091Z" fill="#2A3843"/>
<path d="M137.998 13.3329L162.336 38.489C162.336 38.489 146.063 29.4337 140.153 23.3243C134.242 17.215 137.998 13.3329 137.998 13.3329Z" fill="url(#paint0_linear_411_2045)"/>
<path d="M137.998 13.3329L162.336 38.489C162.336 38.489 153.575 21.6694 147.664 15.5601C141.754 9.45073 137.998 13.3329 137.998 13.3329Z" fill="url(#paint1_linear_411_2045)"/>
<path d="M166.972 -0.000137329V35.576C166.972 35.576 161.661 17.2797 161.661 8.63978C161.661 -0.000137329 166.972 -0.000137329 166.972 -0.000137329Z" fill="url(#paint2_linear_411_2045)"/>
<path d="M166.972 -0.000137329V35.576C166.972 35.576 172.284 17.2797 172.284 8.63978C172.284 -0.000137329 166.972 -0.000137329 166.972 -0.000137329Z" fill="url(#paint3_linear_411_2045)"/>
<path d="M196.311 13.1236L171.974 38.2798C171.974 38.2798 180.734 21.4602 186.645 15.3509C192.555 9.24152 196.311 13.1236 196.311 13.1236Z" fill="url(#paint4_linear_411_2045)"/>
<path d="M196.311 13.1236L171.974 38.2798C171.974 38.2798 188.246 29.2244 194.156 23.1151C200.067 17.0058 196.311 13.1236 196.311 13.1236Z" fill="url(#paint5_linear_411_2045)"/>
<path d="M208 43.0728H173.582C173.582 43.0728 191.283 37.5827 199.642 37.5827C208 37.5827 208 43.0728 208 43.0728Z" fill="url(#paint6_linear_411_2045)"/>
<path d="M208 43.0728H173.582C173.582 43.0728 191.283 48.563 199.642 48.563C208 48.563 208 43.0728 208 43.0728Z" fill="url(#paint7_linear_411_2045)"/>
<path fill-rule="evenodd" clip-rule="evenodd" d="M173.582 87L1.32227 87L1.32227 83.9194L173.582 83.9194L173.582 87Z" fill="black"/>
<defs>
<linearGradient id="paint0_linear_411_2045" x1="162.336" y1="38.489" x2="137.193" y2="14.165" gradientUnits="userSpaceOnUse">
<stop stop-color="#ED9E04"/>
<stop offset="1" stop-color="#FFF84E" stop-opacity="0.78"/>
</linearGradient>
<linearGradient id="paint1_linear_411_2045" x1="162.336" y1="38.489" x2="137.193" y2="14.165" gradientUnits="userSpaceOnUse">
<stop stop-color="#ED9E04"/>
<stop offset="1" stop-color="#FFF84E" stop-opacity="0.78"/>
</linearGradient>
<linearGradient id="paint2_linear_411_2045" x1="166.972" y1="35.576" x2="166.972" y2="-0.000137329" gradientUnits="userSpaceOnUse">
<stop stop-color="#ED9E04"/>
<stop offset="1" stop-color="#FFF84E" stop-opacity="0.78"/>
</linearGradient>
<linearGradient id="paint3_linear_411_2045" x1="166.972" y1="35.576" x2="166.972" y2="-0.000137329" gradientUnits="userSpaceOnUse">
<stop stop-color="#ED9E04"/>
<stop offset="1" stop-color="#FFF84E" stop-opacity="0.78"/>
</linearGradient>
<linearGradient id="paint4_linear_411_2045" x1="171.974" y1="38.2798" x2="197.116" y2="13.9558" gradientUnits="userSpaceOnUse">
<stop stop-color="#ED9E04"/>
<stop offset="1" stop-color="#FFF84E" stop-opacity="0.78"/>
</linearGradient>
<linearGradient id="paint5_linear_411_2045" x1="171.974" y1="38.2798" x2="197.116" y2="13.9558" gradientUnits="userSpaceOnUse">
<stop stop-color="#ED9E04"/>
<stop offset="1" stop-color="#FFF84E" stop-opacity="0.78"/>
</linearGradient>
<linearGradient id="paint6_linear_411_2045" x1="173.582" y1="43.0728" x2="208" y2="43.0728" gradientUnits="userSpaceOnUse">
<stop stop-color="#ED9E04"/>
<stop offset="1" stop-color="#FFF84E" stop-opacity="0.78"/>
</linearGradient>
<linearGradient id="paint7_linear_411_2045" x1="173.582" y1="43.0728" x2="208" y2="43.0728" gradientUnits="userSpaceOnUse">
<stop stop-color="#ED9E04"/>
<stop offset="1" stop-color="#FFF84E" stop-opacity="0.78"/>
</linearGradient>
</defs>
</svg>
