<svg width="48" height="48" viewBox="0 0 48 48" fill="none" xmlns="http://www.w3.org/2000/svg">
<path d="M28.2322 13.0607L12.0435 29.2494L12.0435 29.2494L12.0382 29.2547L12.0381 29.2547C12.0271 29.2658 12.0162 29.2767 12.0053 29.2875C11.8429 29.4497 11.699 29.5932 11.5977 29.7722C11.4963 29.9512 11.4472 30.1484 11.3918 30.3711C11.3881 30.386 11.3844 30.401 11.3806 30.4162L9.71704 37.0703L9.71036 37.097C9.67112 37.2537 9.62921 37.421 9.61546 37.5615C9.60032 37.7163 9.60385 37.9773 9.81326 38.1867L10.1661 37.8339L9.81326 38.1867C10.0227 38.3961 10.2837 38.3997 10.4385 38.3845C10.579 38.3708 10.7464 38.3289 10.9031 38.2896L10.9297 38.283L17.5838 36.6194C17.599 36.6156 17.614 36.6119 17.6288 36.6082C17.8516 36.5528 18.0488 36.5037 18.2278 36.4023C18.4068 36.301 18.5504 36.1571 18.7125 35.9947C18.7233 35.9838 18.7342 35.9729 18.7453 35.9618L34.9393 19.7678L34.9626 19.7445C35.2761 19.4311 35.5461 19.1611 35.7333 18.9157C35.9339 18.6528 36.0858 18.3604 36.0858 18C36.0858 17.6396 35.9339 17.3472 35.7333 17.0843C35.5461 16.839 35.2761 16.5689 34.9627 16.2555L34.9393 16.2322L31.7678 13.0607L31.7445 13.0374C31.4311 12.724 31.1611 12.4539 30.9157 12.2667C30.6528 12.0661 30.3604 11.9142 30 11.9142C29.6396 11.9142 29.3472 12.0661 29.0843 12.2667C28.8389 12.4539 28.5689 12.7239 28.2555 13.0374L28.2322 13.0607Z" stroke="#333333"/>
<path d="M25 15L31 11L37 17L33 23L25 15Z" fill="#333333"/>
</svg>
