<svg width="48" height="48" viewBox="0 0 48 48" fill="none" xmlns="http://www.w3.org/2000/svg">
<path d="M24 10L23.6464 9.64645L24 9.29289L24.3536 9.64645L24 10ZM24.5 28C24.5 28.2761 24.2761 28.5 24 28.5C23.7239 28.5 23.5 28.2761 23.5 28L24.5 28ZM13.6464 19.6464L23.6464 9.64645L24.3536 10.3536L14.3536 20.3536L13.6464 19.6464ZM24.3536 9.64645L34.3536 19.6464L33.6464 20.3536L23.6464 10.3536L24.3536 9.64645ZM24.5 10L24.5 28L23.5 28L23.5 10L24.5 10Z" fill="#333333"/>
<path d="M10 32L10 34C10 36.2091 11.7909 38 14 38L34 38C36.2091 38 38 36.2091 38 34V32" stroke="#333333"/>
</svg>
