<svg width="48" height="48" viewBox="0 0 48 48" fill="none" xmlns="http://www.w3.org/2000/svg">
<path d="M6 14C6 10.2288 6 8.34315 7.17157 7.17157C8.34315 6 10.2288 6 14 6H34C37.7712 6 39.6569 6 40.8284 7.17157C42 8.34315 42 10.2288 42 14V34C42 37.7712 42 39.6569 40.8284 40.8284C39.6569 42 37.7712 42 34 42H14C10.2288 42 8.34315 42 7.17157 40.8284C6 39.6569 6 37.7712 6 34V14Z" stroke="#333333"/>
<path fill-rule="evenodd" clip-rule="evenodd" d="M40 31.2927L35.182 26.4746L35.1561 26.4488C34.5114 25.8041 33.9918 25.2844 33.5282 24.9307C33.0468 24.5634 32.5675 24.3282 32 24.3282C31.4325 24.3282 30.9532 24.5634 30.4718 24.9307C30.0082 25.2844 29.4886 25.8041 28.8439 26.4488L28.818 26.4746L25.7353 29.5574C25.2505 30.0422 24.926 30.3648 24.6609 30.5617C24.4041 30.7524 24.3004 30.7503 24.2428 30.7392C24.1852 30.7281 24.0881 30.6915 23.9205 30.4191C23.7475 30.1379 23.566 29.7178 23.2959 29.0876L20.7869 23.2332L20.7697 23.1932C20.2571 21.997 19.8499 21.0468 19.4367 20.3752C19.0135 19.6873 18.5221 19.1873 17.7981 19.0479C17.0742 18.9085 16.4323 19.1902 15.7839 19.6717C15.1508 20.1418 14.4198 20.8728 13.4996 21.7931L13.4688 21.8239L8 27.2927V28.7069L14.1759 22.531C15.1339 21.573 15.8133 20.8954 16.3801 20.4745C16.9386 20.0598 17.2909 19.9686 17.609 20.0299C17.9272 20.0912 18.2204 20.3066 18.5849 20.8992C18.9549 21.5004 19.3341 22.3819 19.8678 23.6272L22.3768 29.4815L22.3925 29.5182L22.3925 29.5182C22.6427 30.102 22.8524 30.5914 23.0687 30.9431C23.295 31.3108 23.5902 31.6319 24.0537 31.7212C24.5171 31.8104 24.9104 31.6219 25.2571 31.3645C25.5886 31.1184 25.965 30.7419 26.4141 30.2927L26.4142 30.2927L26.4424 30.2645L29.5251 27.1817C30.2018 26.5051 30.6745 26.0339 31.0784 25.7257C31.4708 25.4263 31.7391 25.3282 32 25.3282C32.2609 25.3282 32.5292 25.4263 32.9216 25.7257C33.3255 26.0339 33.7982 26.5051 34.4749 27.1818L39.6464 32.3533L40 31.9998V31.2927Z" fill="#333333"/>
<circle cx="33" cy="15" r="3" fill="#333333"/>
</svg>
