<svg width="48" height="48" viewBox="0 0 48 48" fill="none" xmlns="http://www.w3.org/2000/svg">
<path d="M26.001 37.5H12.001C10.5423 37.5 9.14334 36.9205 8.11189 35.8891C7.08044 34.8576 6.50098 33.4587 6.50098 32V16C6.50098 14.5413 7.08044 13.1424 8.11189 12.1109C9.14334 11.0795 10.5423 10.5 12.001 10.5H26.001C27.4597 10.5 28.8586 11.0795 29.8901 12.1109C30.9215 13.1424 31.501 14.5413 31.501 16V32C31.501 33.4587 30.9215 34.8576 29.8901 35.8891C28.8586 36.9205 27.4597 37.5 26.001 37.5ZM12.001 13.5C11.3379 13.5 10.7021 13.7634 10.2332 14.2322C9.76437 14.7011 9.50098 15.337 9.50098 16V32C9.50098 32.663 9.76437 33.2989 10.2332 33.7678C10.7021 34.2366 11.3379 34.5 12.001 34.5H26.001C26.664 34.5 27.2999 34.2366 27.7687 33.7678C28.2376 33.2989 28.501 32.663 28.501 32V16C28.501 15.337 28.2376 14.7011 27.7687 14.2322C27.2999 13.7634 26.664 13.5 26.001 13.5H12.001Z" fill="#4F4F4F"/>
<path d="M40 33.5C39.7253 33.4957 39.4565 33.4199 39.22 33.28L29.22 27.28C29.0003 27.1463 28.8187 26.9583 28.6926 26.7341C28.5666 26.51 28.5002 26.2572 28.5 26V22C28.5002 21.7428 28.5666 21.49 28.6926 21.2658C28.8187 21.0417 29.0003 20.8537 29.22 20.72L39.22 14.72C39.4497 14.5825 39.7123 14.5099 39.98 14.5099C40.2477 14.5099 40.5103 14.5825 40.74 14.72C40.97 14.8505 41.1615 15.0394 41.295 15.2677C41.4284 15.496 41.4992 15.7555 41.5 16.02V32.02C41.4992 32.2844 41.4284 32.544 41.295 32.7723C41.1615 33.0006 40.97 33.1895 40.74 33.32C40.5143 33.4462 40.2585 33.5085 40 33.5ZM31.5 25.16L38.5 29.36V18.64L31.5 22.84V25.16Z" fill="#4F4F4F"/>
</svg>
