<svg width="48" height="48" viewBox="0 0 48 48" fill="none" xmlns="http://www.w3.org/2000/svg">
<path d="M6 42H10M10 42H38M10 42V18.656M42 42H38M38 42V18.656M10 18.656C9.92522 18.613 9.85185 18.5677 9.78 18.52L8.7 17.8C7.93651 17.2907 7.37136 16.5344 7.09934 15.6579C6.82732 14.7814 6.86498 13.838 7.206 12.986L8.994 8.514C9.29098 7.77181 9.80352 7.13563 10.4655 6.68752C11.1275 6.23942 11.9086 5.99995 12.708 6H35.292C36.0914 5.99995 36.8725 6.23942 37.5345 6.68752C38.1965 7.13563 38.709 7.77181 39.006 8.514L40.794 12.986C41.135 13.838 41.1727 14.7814 40.9007 15.6579C40.6286 16.5344 40.0635 17.2907 39.3 17.8L38.22 18.52C38.1482 18.5677 38.0748 18.613 38 18.656M10 18.656C10.6461 19.0292 11.3837 19.2142 12.1294 19.1901C12.8751 19.1661 13.5993 18.934 14.22 18.52L18 16L21.78 18.52C22.4373 18.9586 23.2098 19.1926 24 19.1926C24.7902 19.1926 25.5627 18.9586 26.22 18.52L30 16L33.78 18.52C34.4007 18.934 35.1249 19.1661 35.8706 19.1901C36.6163 19.2142 37.3539 19.0292 38 18.656" stroke="#121516" stroke-linecap="round" stroke-linejoin="round"/>
<path d="M28 42V32C28 30.9391 27.5786 29.9217 26.8284 29.1716C26.0783 28.4214 25.0609 28 24 28C22.9391 28 21.9217 28.4214 21.1716 29.1716C20.4214 29.9217 20 30.9391 20 32V42" stroke="#121516"/>
</svg>
