<svg width="48" height="48" viewBox="0 0 48 48" fill="none" xmlns="http://www.w3.org/2000/svg">
<path d="M20.2877 13.2552C21.8609 9.33316 22.6475 7.37216 24.0002 7.37216C25.3528 7.37216 26.1394 9.33316 27.7127 13.2552L27.7859 13.4378C28.6747 15.6535 29.1191 16.7614 30.0248 17.4348C30.9305 18.1081 32.1194 18.2146 34.4972 18.4276L34.9271 18.4661C38.8187 18.8146 40.7646 18.9889 41.1809 20.2268C41.5973 21.4648 40.1522 22.7795 37.2621 25.4089L36.2976 26.2864C34.8346 27.6174 34.1031 28.283 33.7621 29.1552C33.6985 29.3179 33.6456 29.4846 33.6038 29.6543C33.3797 30.5636 33.5939 31.529 34.0223 33.46L34.1557 34.061C34.943 37.6097 35.3367 39.384 34.6494 40.1494C34.3925 40.4353 34.0587 40.6412 33.6879 40.7424C32.6955 41.0132 31.2865 39.8651 28.4686 37.5689C26.6183 36.0612 25.6931 35.3073 24.6309 35.1377C24.2131 35.071 23.7873 35.071 23.3695 35.1377C22.3073 35.3073 21.3821 36.0612 19.5318 37.5689C16.7139 39.8651 15.3049 41.0132 14.3125 40.7424C13.9417 40.6412 13.6079 40.4353 13.351 40.1494C12.6637 39.384 13.0573 37.6097 13.8447 34.061L13.978 33.46C14.4064 31.529 14.6207 30.5636 14.3965 29.6543C14.3547 29.4846 14.3019 29.3179 14.2383 29.1552C13.8973 28.283 13.1658 27.6174 11.7028 26.2864L10.7382 25.4089C7.84815 22.7795 6.40311 21.4648 6.81946 20.2268C7.23582 18.9889 9.18164 18.8146 13.0733 18.4661L13.5031 18.4276C15.881 18.2146 17.0699 18.1081 17.9756 17.4348C18.8813 16.7614 19.3257 15.6535 20.2145 13.4378L20.2877 13.2552Z" stroke="#333333"/>
</svg>
